<svg width="37" height="34" viewBox="0 0 37 34" fill="none" xmlns="http://www.w3.org/2000/svg">
<path d="M18.4868 0C8.25303 0 0 6.56366 0 14.532C0 19.7043 3.43326 24.2332 8.58316 26.8193L6.84012 33.2912C6.80725 33.3882 6.8022 33.4923 6.82552 33.592C6.84884 33.6917 6.89961 33.783 6.97216 33.8556C7.07795 33.9484 7.21406 33.9997 7.3551 34C7.47205 33.9907 7.583 33.9447 7.67202 33.8688L15.1724 28.841C16.2795 28.9929 17.3956 29.0718 18.5132 29.0772C28.7338 29.0772 37 22.5135 37 14.532C37 6.55053 28.7074 0 18.4868 0Z" fill="#392020"/>
<path d="M6.3745 11.8888H4.18089C3.909 11.8961 3.64048 11.8316 3.40667 11.7027C3.30286 11.6423 3.21362 11.5628 3.14454 11.4689C3.07546 11.3751 3.02803 11.2691 3.00522 11.1575C2.99826 11.0867 2.99826 11.0156 3.00522 10.9449C2.99841 10.8125 3.02613 10.6804 3.08603 10.5601C3.14593 10.4397 3.23625 10.3346 3.34932 10.2535C3.59927 10.0856 3.90097 9.99691 4.20956 10.0008H10.8191C11.0931 9.99183 11.3635 10.0615 11.5933 10.2002C11.6996 10.2579 11.7907 10.3368 11.8601 10.431C11.9295 10.5253 11.9755 10.6326 11.9948 10.7454C12.0018 10.8117 12.0018 10.8786 11.9948 10.9449C12.0015 11.0792 11.9739 11.213 11.914 11.3355C11.8542 11.458 11.764 11.5655 11.6507 11.6494C11.4068 11.8171 11.108 11.9017 10.8047 11.8888H8.68282V18.8824C8.69144 19.0314 8.66657 19.1803 8.60981 19.32C8.55304 19.4596 8.46561 19.5868 8.35306 19.6934C8.24513 19.7954 8.11539 19.8753 7.97218 19.9279C7.82896 19.9806 7.67543 20.0049 7.52149 19.9992C7.25223 20.0063 6.98868 19.9265 6.77595 19.7733C6.57343 19.6236 6.43598 19.411 6.38884 19.1749C6.37468 19.0778 6.37468 18.9795 6.38884 18.8824L6.3745 11.8888Z" fill="#FEE500"/>
<path d="M12.1465 10.6804C12.2082 10.4655 12.3531 10.2794 12.5533 10.1579C12.7666 10.0454 13.0097 9.99104 13.2547 10.0012H13.7878C14.0478 9.99253 14.3052 10.0513 14.5313 10.171C14.771 10.321 14.9412 10.5495 15.0083 10.811L17.814 18.1906C17.8868 18.3831 17.9477 18.5795 17.9964 18.7785C18.0012 18.8611 18.0012 18.9439 17.9964 19.0265C18.0011 19.1538 17.976 19.2806 17.9227 19.3979C17.8694 19.5152 17.7892 19.6203 17.6878 19.7058C17.5895 19.7995 17.4715 19.8735 17.3412 19.9229C17.2108 19.9724 17.0709 19.9962 16.9302 19.9931C16.7138 20.0131 16.4965 19.9648 16.3133 19.8558C16.1301 19.7468 15.9916 19.5835 15.9202 19.3923L15.331 17.7858H11.6414L11.0522 19.3923C10.9825 19.5873 10.8424 19.7537 10.6556 19.8633C10.4689 19.9728 10.2471 20.0187 10.0281 19.9931C9.79091 19.9989 9.55855 19.9298 9.36878 19.7971C9.1839 19.6602 9.05916 19.4652 9.01807 19.2486C9.01062 19.1748 9.01062 19.1004 9.01807 19.0265C8.99398 18.8969 8.99398 18.7645 9.01807 18.6348C9.01807 18.4911 9.11627 18.3343 9.17238 18.1906L12.1465 10.6804ZM13.5493 12.3915L12.2166 16.3099H14.868L13.5493 12.3915Z" fill="#FEE500"/>
<path d="M18.0012 11.1178C17.9874 10.8195 18.0947 10.528 18.2995 10.307C18.4037 10.204 18.5287 10.1235 18.6665 10.0709C18.8044 10.0182 18.9519 9.9944 19.0997 10.0011C19.3537 9.9982 19.6016 10.0777 19.8049 10.2271C19.9933 10.3831 20.1184 10.6 20.1575 10.8386C20.1709 10.9311 20.1709 11.0252 20.1575 11.1178V18.1098H23.887C24.1455 18.1065 24.3996 18.1755 24.6193 18.3091C24.7181 18.3687 24.8029 18.4482 24.8683 18.5421C24.9337 18.636 24.9783 18.7422 24.999 18.8541C24.999 18.8541 24.999 18.9871 24.999 19.0535C25.0055 19.1859 24.9793 19.3178 24.9226 19.4381C24.866 19.5584 24.7805 19.6637 24.6736 19.7448C24.4371 19.9126 24.1518 20.0011 23.8599 19.9973H19.276C18.984 20.0157 18.6938 19.9412 18.4487 19.7847C18.2294 19.624 18.0833 19.3853 18.0419 19.12C18.0319 18.974 18.0319 18.8273 18.0419 18.6813L18.0012 11.1178Z" fill="#FEE500"/>
<path d="M25.0912 11.1054C25.0831 10.811 25.1894 10.5245 25.389 10.3029C25.5918 10.1237 25.852 10.0179 26.1257 10.0035C26.3994 9.98915 26.6698 10.067 26.8913 10.2239C27.0834 10.3768 27.213 10.5914 27.2567 10.829C27.2634 10.921 27.2634 11.0134 27.2567 11.1054V14.3286L30.6808 10.4869C30.8128 10.3559 30.9529 10.233 31.1004 10.1187C31.2394 10.0382 31.3988 9.99708 31.5606 10.0002C31.7971 9.9989 32.0284 10.0678 32.2237 10.1975C32.3158 10.2578 32.3943 10.3355 32.4548 10.4259C32.5153 10.5163 32.5564 10.6176 32.5756 10.7238C32.5811 10.7499 32.5811 10.7768 32.5756 10.8028C32.5691 10.8332 32.5691 10.8645 32.5756 10.8949C32.5752 11.0333 32.5379 11.1693 32.4673 11.2896C32.3955 11.417 32.3093 11.536 32.2102 11.6447L29.9635 14.0392L32.6704 18.1176V18.2492C32.8109 18.4377 32.9205 18.6464 32.9952 18.8676V18.9333C33.0108 19.0858 32.9882 19.2397 32.9293 19.3817C32.8704 19.5238 32.7769 19.6498 32.6568 19.749C32.4311 19.9149 32.1548 20.0029 31.8719 19.9991C31.6838 20.0066 31.4971 19.9656 31.3305 19.8805C31.1502 19.763 31.0017 19.6051 30.8974 19.4201L28.38 15.4732L27.1755 16.6968V18.8938C27.1836 19.1882 27.0773 19.4747 26.8777 19.6963C26.7708 19.798 26.6436 19.8773 26.5039 19.9294C26.3643 19.9814 26.2151 20.0051 26.0657 19.9991C25.816 20.0041 25.5721 19.9251 25.3754 19.7754C25.1843 19.6272 25.0545 19.4171 25.01 19.1834C24.9967 19.0873 24.9967 18.9899 25.01 18.8938L25.0912 11.1054Z" fill="#FEE500"/>
</svg>
