<svg width="165" height="25" fill="none" xmlns="http://www.w3.org/2000/svg"><path d="M0 15.72c0 6.9 5.64 9.15 10.05 9.15 4.41 0 10.05-2.25 10.05-9.15V9.15C20.1 2.25 14.46 0 10.05 0 5.55 0 0 2.25 0 9.15v6.57Zm13.98.18c0 2.4-2.22 3.84-3.93 3.84S6.12 18.3 6.12 15.9V8.97c0-2.64 2.04-3.84 3.93-3.84 1.89 0 3.93 1.2 3.93 3.84v6.93ZM32.877 17.16c5.19 0 9-2.58 9-8.25V8.4c0-5.67-3.81-8.25-9-8.25h-5.22c-3.6 0-4.68 1.29-4.68 4.74V24.3h6.18v-7.14h3.72Zm-3.72-10.92c0-.72.18-.87.87-.87h2.55c2.01 0 3.15 1.5 3.15 3.18v.21c0 1.68-1.14 3.18-3.15 3.18h-3.42v-5.7ZM50.543 6.27c0-.72.18-.87.87-.87h7.59c1.77 0 2.43-1.35 2.43-2.58s-.69-2.67-2.43-2.67h-9.93c-3.6 0-4.68 1.29-4.68 4.74v14.67c0 3.45 1.08 4.74 4.68 4.74h10.23c1.74 0 2.43-1.44 2.43-2.67s-.66-2.58-2.43-2.58h-7.89c-.69 0-.87-.15-.87-.87v-3.51h8.19c1.77 0 2.43-1.35 2.43-2.55 0-1.2-.69-2.64-2.43-2.64h-8.19V6.27ZM71.126 1.83c-.75-1.29-2.43-1.89-3.87-1.74-1.38.15-3 1.14-3 3V24.3h5.46V9.96l7.32 12.96c.75 1.29 2.49 1.86 3.93 1.74 1.35-.12 2.94-1.05 2.94-2.88V2.88c0-1.83-1.29-2.85-2.73-2.85s-2.73 1.02-2.73 2.85v11.97l-7.32-13.02ZM106.337 8.34v-.36c0-5.37-3.81-7.83-9-7.83h-5.52c-3.6 0-4.68 1.29-4.68 4.74V24.3h6.15v-8.07h3.84l4.5 8.07h6.78l-5.7-9.57c2.13-1.35 3.63-3.54 3.63-6.39Zm-13.05-2.16c0-.72.18-.87.87-.87h3.03c2.01 0 3.06 1.29 3.06 2.82v.21c0 1.53-1.05 2.82-3.06 2.82h-3.9V6.18Z" fill="#000"/><path d="M134.74 16.23c0 2.25-3.5 3.36-9.5 3.36s-9.601-1.11-9.601-3.36v-5.61c0-2.04-1.41-2.97-3.09-2.97-1.65 0-3.09.93-3.09 2.97v5.37c0 6.69 5.781 8.82 15.781 8.82 10.5 0 15.68-2.13 15.68-8.82v-5.37c0-2.04-1.41-2.97-3.09-2.97-1.65 0-3.09.93-3.09 2.97v5.61Z" fill="url(#a)"/><path d="M151.96 1.83c-.75-1.29-2.43-1.89-3.87-1.74-1.38.15-3 1.14-3 3V24.3h5.46V9.96l7.32 12.96c.75 1.29 2.49 1.86 3.93 1.74 1.35-.12 2.94-1.05 2.94-2.88V2.88c0-1.83-1.29-2.85-2.73-2.85s-2.73 1.02-2.73 2.85v11.97l-7.32-13.02Z" fill="#000"/><circle cx="112.74" cy="3.12" r="3" fill="#5920D3"/><circle cx="137.74" cy="3.12" r="3" fill="#2F88E5"/><defs><linearGradient id="a" x1="100.266" y1="8.12" x2="142.554" y2="22.085" gradientUnits="userSpaceOnUse"><stop offset=".556" stop-color="#5920D2"/><stop offset=".954" stop-color="#1ABBEE"/></linearGradient></defs></svg>